<svg xmlns="http://www.w3.org/2000/svg" id="Icons" viewBox="0 0 74 74" width="24" height="24"><path d="M64.258,71.991H9.742A7.732,7.732,0,0,1,2.825,60.8L30.083,6.283a7.733,7.733,0,0,1,13.833,0L71.175,60.8a7.732,7.732,0,0,1-6.917,11.191ZM37,4.009a5.629,5.629,0,0,0-5.127,3.169L4.614,61.695a5.732,5.732,0,0,0,5.127,8.3H64.258a5.732,5.732,0,0,0,5.127-8.3L42.127,7.178A5.629,5.629,0,0,0,37,4.009Z"/><path d="M36.855,46.855a3.628,3.628,0,0,1-3.624-3.624V27.187a3.624,3.624,0,0,1,7.248,0V43.231A3.628,3.628,0,0,1,36.855,46.855Zm0-21.293a1.626,1.626,0,0,0-1.624,1.624V43.231a1.624,1.624,0,0,0,3.248,0V27.187A1.626,1.626,0,0,0,36.855,25.563Z"/><path d="M37.034,57.188a3.735,3.735,0,1,1,3.735-3.735A3.74,3.74,0,0,1,37.034,57.188Zm0-5.47a1.735,1.735,0,1,0,1.735,1.735A1.737,1.737,0,0,0,37.034,51.717Z"/></svg>
